<?xml version="1.0" encoding="utf-8"?>
<!-- Generator: Adobe Illustrator 16.0.0, SVG Export Plug-In . SVG Version: 6.00 Build 0)  -->
<!DOCTYPE svg PUBLIC "-//W3C//DTD SVG 1.1//EN" "http://www.w3.org/Graphics/SVG/1.1/DTD/svg11.dtd">
<svg version="1.1" id="Ebene_1" xmlns="http://www.w3.org/2000/svg" xmlns:xlink="http://www.w3.org/1999/xlink" x="0px" y="0px"
	 width="40px" height="40px" viewBox="0 0 40 40" enable-background="new 0 0 40 40" xml:space="preserve">
<path stroke="#FFFFFF" stroke-linecap="round" d="M20,4.75c-2.21,0-4,1.733-4,3.872c0,0.861,0.29,1.655,0.78,2.304
	c-1.95,1.084-3.28,3.107-3.28,5.44c0,1.964,0.94,4.204,2.41,5.356c-3,1.023-7.41,5.654-7.41,13.525h23
	c0-7.871-4.41-12.502-7.41-13.525c1.471-1.152,2.41-3.148,2.41-5.114c0-2.333-1.33-4.478-3.279-5.562
	C23.71,10.399,24,9.545,24,8.684C24,6.544,22.21,4.75,20,4.75z"/>
</svg>
