<?xml version="1.0" encoding="utf-8"?>
<!-- Generator: Adobe Illustrator 16.0.0, SVG Export Plug-In . SVG Version: 6.00 Build 0)  -->
<!DOCTYPE svg PUBLIC "-//W3C//DTD SVG 1.1//EN" "http://www.w3.org/Graphics/SVG/1.1/DTD/svg11.dtd">
<svg version="1.1" id="Ebene_1" xmlns="http://www.w3.org/2000/svg" xmlns:xlink="http://www.w3.org/1999/xlink" x="0px" y="0px"
	 width="40px" height="40px" viewBox="0 0 40 40" enable-background="new 0 0 40 40" xml:space="preserve">
<g>
	<path fill="#FFFFFF" stroke="#000000" stroke-width="1.5" stroke-linecap="round" stroke-linejoin="round" d="M7.067,10.747
		c0,0.984-0.799,1.783-1.783,1.783c-0.985,0-1.784-0.799-1.784-1.783c0-0.985,0.799-1.784,1.784-1.784
		C6.269,8.963,7.067,9.762,7.067,10.747z"/>
	<path fill="#FFFFFF" stroke="#000000" stroke-width="1.5" stroke-linecap="round" stroke-linejoin="round" d="M21.783,6.733
		c0,0.984-0.798,1.783-1.783,1.783s-1.784-0.799-1.784-1.783c0-0.985,0.799-1.784,1.784-1.784S21.783,5.748,21.783,6.733z"/>
	<path fill="#FFFFFF" stroke="#000000" stroke-width="1.5" stroke-linecap="round" stroke-linejoin="round" d="M36.5,10.747
		c0,0.984-0.798,1.783-1.783,1.783s-1.785-0.799-1.785-1.783c0-0.985,0.8-1.784,1.785-1.784S36.5,9.762,36.5,10.747z"/>
	<path fill="#FFFFFF" stroke="#000000" stroke-width="1.5" stroke-linecap="round" stroke-linejoin="round" d="M14.203,7.625
		c0,0.985-0.799,1.784-1.784,1.784s-1.784-0.799-1.784-1.784s0.799-1.784,1.784-1.784S14.203,6.64,14.203,7.625z"/>
	<path fill="#FFFFFF" stroke="#000000" stroke-width="1.5" stroke-linecap="round" stroke-linejoin="round" d="M29.365,8.071
		c0,0.984-0.8,1.783-1.784,1.783s-1.784-0.799-1.784-1.783c0-0.985,0.8-1.784,1.784-1.784S29.365,7.086,29.365,8.071z"/>
	<path fill="#FFFFFF" stroke="#000000" stroke-width="1.5" stroke-linejoin="round" d="M7.959,23.232
		c7.581-1.338,18.73-1.338,24.082,0l1.783-10.702l-6.243,9.812V9.854l-4.905,12.04L20,8.517l-2.676,13.378L12.419,9.409v12.933
		L6.176,12.53L7.959,23.232z"/>
	<path fill="#FFFFFF" stroke="#000000" stroke-width="1.5" stroke-linejoin="round" d="M7.959,23.232
		c0,1.785,1.337,1.785,2.23,3.568c0.892,1.338,0.892,0.893,0.445,3.121c-1.338,0.893-1.338,2.23-1.338,2.23
		c-1.337,1.338,0.446,2.229,0.446,2.229c5.797,0.893,14.716,0.893,20.513,0c0,0,1.338-0.891,0-2.229c0,0,0.447-1.338-0.891-2.23
		c-0.446-2.229-0.446-1.783,0.445-3.121c0.893-1.783,2.23-1.783,2.23-3.568C24.459,21.895,15.541,21.895,7.959,23.232z"/>
	<path fill="none" stroke="#000000" stroke-width="1.5" stroke-linecap="round" stroke-linejoin="round" d="M10.189,26.801
		c3.121-0.893,16.5-0.893,19.621,0"/>
	<path fill="none" stroke="#000000" stroke-width="1.5" stroke-linecap="round" stroke-linejoin="round" d="M10.635,29.922
		c5.352-0.891,13.379-0.891,18.73,0"/>
</g>
</svg>
