<?xml version="1.0" encoding="utf-8"?>
<!-- Generator: Adobe Illustrator 16.0.0, SVG Export Plug-In . SVG Version: 6.00 Build 0)  -->
<!DOCTYPE svg PUBLIC "-//W3C//DTD SVG 1.1//EN" "http://www.w3.org/Graphics/SVG/1.1/DTD/svg11.dtd">
<svg version="1.1" id="Ebene_1" xmlns="http://www.w3.org/2000/svg" xmlns:xlink="http://www.w3.org/1999/xlink" x="0px" y="0px"
	 width="40px" height="40px" viewBox="0 0 40 40" enable-background="new 0 0 40 40" xml:space="preserve">
<g>
	<g>
		<circle fill="#FFFFFF" stroke="#FFFFFF" stroke-width="2" stroke-miterlimit="10" cx="6.715" cy="11.267" r="2.215"/>
		<circle fill="#FFFFFF" stroke="#FFFFFF" stroke-width="2" stroke-miterlimit="10" cx="13.156" cy="8.851" r="2.214"/>
		<circle fill="#FFFFFF" stroke="#FFFFFF" stroke-width="2" stroke-miterlimit="10" cx="20" cy="8.045" r="2.214"/>
		<circle fill="#FFFFFF" stroke="#FFFFFF" stroke-width="2" stroke-miterlimit="10" cx="26.844" cy="8.851" r="2.214"/>
		<circle fill="#FFFFFF" stroke="#FFFFFF" stroke-width="2" stroke-miterlimit="10" cx="33.285" cy="11.267" r="2.215"/>
	</g>
	<path fill="#FFFFFF" stroke="#FFFFFF" stroke-width="3.5" stroke-linejoin="round" d="M9.129,22.539
		c6.844-1.208,16.91-1.208,21.741,0l2.011-10.065l-6.037,9.261L26.602,10.38l-4.187,10.951L20,9.655l-2.415,11.676L13.397,10.38
		l-0.241,11.354l-6.039-9.261L9.129,22.539z"/>
	<path fill="#FFFFFF" stroke="#FFFFFF" stroke-width="3.5" stroke-linejoin="round" d="M9.129,22.539c0,1.61,1.208,1.61,2.013,3.221
		c0.806,1.207,0.806,0.804,0.403,2.819c-1.208,0.804-1.208,2.011-1.208,2.011c-1.208,1.207,0.403,2.014,0.403,2.014
		c5.233,0.805,13.286,0.805,18.519,0c0,0,1.207-0.807,0-2.014c0,0,0.403-1.207-0.804-2.011c-0.403-2.016-0.403-1.612,0.4-2.819
		c0.807-1.61,2.014-1.61,2.014-3.221C24.026,21.331,15.974,21.331,9.129,22.539z"/>
	<path fill="#FFFFFF" stroke="#FFFFFF" stroke-width="3.5" stroke-linejoin="round" d="M10.741,32.604
		c5.997,2.086,12.522,2.086,18.519,0"/>
</g>
<g>
	<g>
		<circle cx="6.715" cy="11.267" r="2.215"/>
		<circle cx="13.156" cy="8.851" r="2.214"/>
		<circle cx="20" cy="8.045" r="2.214"/>
		<circle cx="26.844" cy="8.851" r="2.214"/>
		<circle cx="33.285" cy="11.267" r="2.215"/>
	</g>
	<path stroke="#000000" stroke-width="1.5" stroke-linejoin="round" d="M9.129,22.539c6.844-1.208,16.91-1.208,21.741,0
		l2.011-10.065l-6.037,9.261L26.602,10.38l-4.187,10.951L20,9.655l-2.415,11.676L13.397,10.38l-0.241,11.354l-6.039-9.261
		L9.129,22.539z"/>
	<path stroke="#000000" stroke-width="1.5" stroke-linejoin="round" d="M9.129,22.539c0,1.61,1.208,1.61,2.013,3.221
		c0.806,1.207,0.806,0.804,0.403,2.819c-1.208,0.804-1.208,2.011-1.208,2.011c-1.208,1.207,0.403,2.014,0.403,2.014
		c5.233,0.805,13.286,0.805,18.519,0c0,0,1.207-0.807,0-2.014c0,0,0.403-1.207-0.804-2.011c-0.403-2.016-0.403-1.612,0.4-2.819
		c0.807-1.61,2.014-1.61,2.014-3.221C24.026,21.331,15.974,21.331,9.129,22.539z"/>
	<path fill="none" stroke="#000000" stroke-width="1.5" stroke-linejoin="round" d="M10.741,32.604
		c5.997,2.086,12.522,2.086,18.519,0"/>
	<path fill="none" stroke="#FFFFFF" stroke-width="1.5" stroke-linecap="round" stroke-linejoin="round" d="M10.741,24.954
		c5.997-2.086,12.522-2.086,18.519,0"/>
	<path fill="none" stroke="#FFFFFF" stroke-width="1.5" stroke-linecap="round" stroke-linejoin="round" d="M11.948,26.967h16.103"
		/>
	<path fill="none" stroke="#FFFFFF" stroke-width="1.5" stroke-linecap="round" stroke-linejoin="round" d="M11.143,29.383
		c5.751,1.905,11.963,1.905,17.714,0"/>
	<path fill="none" stroke="#FFFFFF" stroke-width="1.5" stroke-linecap="round" stroke-linejoin="round" d="M10.337,31.799
		c6.24,2.278,13.084,2.278,19.326,0"/>
</g>
</svg>
