<?xml version="1.0" encoding="utf-8"?>
<!-- Generator: Adobe Illustrator 16.0.0, SVG Export Plug-In . SVG Version: 6.00 Build 0)  -->
<!DOCTYPE svg PUBLIC "-//W3C//DTD SVG 1.1//EN" "http://www.w3.org/Graphics/SVG/1.1/DTD/svg11.dtd">
<svg version="1.1" id="Ebene_1" xmlns="http://www.w3.org/2000/svg" xmlns:xlink="http://www.w3.org/1999/xlink" x="0px" y="0px"
	 width="40px" height="40px" viewBox="0 0 40 40" enable-background="new 0 0 40 40" xml:space="preserve">
<g>
	<path id="path6570" fill="#FFFFFF" stroke="#FFFFFF" stroke-width="3" stroke-linecap="round" d="M20.497,10.733V5.66"/>
	<path fill="#FFFFFF" stroke="#FFFFFF" stroke-width="3" d="M20.497,22.784c0,0,4.056-6.76,2.704-9.464c0,0-0.901-2.253-2.704-2.253
		s-2.704,2.253-2.704,2.253C16.441,16.024,20.497,22.784,20.497,22.784"/>
	<path fill="#FFFFFF" stroke="#FFFFFF" stroke-width="3" stroke-linecap="round" stroke-linejoin="round" d="M10.583,33.6
		c4.958,3.154,13.97,3.154,18.927,0v-6.309c0,0,8.112-4.057,5.408-9.464c-3.605-5.858-12.168-3.155-14.421,3.605v3.154v-3.154
		c-3.155-6.76-11.717-9.464-14.421-3.605c-2.704,5.407,4.506,9.013,4.506,9.013V33.6z"/>
	<path fill="#FFFFFF" stroke="#FFFFFF" stroke-width="3" stroke-linecap="round" d="M18.244,7.462h4.506"/>
	<path fill="#FFFFFF" stroke="#FFFFFF" stroke-width="3" stroke-linecap="round" stroke-linejoin="round" d="M29.06,26.84
		c0,0,7.661-3.605,5.434-8.697c-3.496-5.273-11.743-1.667-13.996,4.19l0.009,1.893l-0.009-1.893
		c-2.253-5.858-11.351-9.463-13.973-4.19c-2.251,5.092,4.374,8.111,4.374,8.111"/>
	<path fill="#FFFFFF" stroke="#FFFFFF" stroke-width="3" stroke-linecap="round" stroke-linejoin="round" d="M10.583,27.291
		c4.958-2.704,13.97-2.704,18.927,0 M10.583,30.445c4.958-2.704,13.97-2.704,18.927,0 M10.583,33.6
		c4.958-2.704,13.97-2.704,18.927,0"/>
</g>
<g>
	<path id="path6570_1_" fill="none" stroke="#000000" stroke-width="1.5" stroke-linecap="round" d="M20.497,10.733V5.66"/>
	<path stroke="#000000" stroke-width="1.5" d="M20.497,22.784c0,0,4.056-6.76,2.704-9.464c0,0-0.901-2.253-2.704-2.253
		s-2.704,2.253-2.704,2.253C16.441,16.024,20.497,22.784,20.497,22.784"/>
	<path stroke="#000000" stroke-width="1.5" stroke-linecap="round" stroke-linejoin="round" d="M10.583,33.6
		c4.958,3.154,13.97,3.154,18.927,0v-6.309c0,0,8.112-4.057,5.408-9.464c-3.605-5.858-12.168-3.155-14.421,3.605v3.154v-3.154
		c-3.155-6.76-11.717-9.464-14.421-3.605c-2.704,5.407,4.506,9.013,4.506,9.013V33.6z"/>
	<path fill="none" stroke="#000000" stroke-width="1.5" stroke-linecap="round" d="M18.244,7.462h4.506"/>
	<path fill="none" stroke="#FFFFFF" stroke-width="1.5" stroke-linecap="round" stroke-linejoin="round" d="M29.06,26.84
		c0,0,7.661-3.605,5.434-8.697c-3.496-5.273-11.743-1.667-13.996,4.19l0.009,1.893l-0.009-1.893
		c-2.253-5.858-11.351-9.463-13.973-4.19c-2.251,5.092,4.374,8.111,4.374,8.111"/>
	<path fill="none" stroke="#FFFFFF" stroke-width="1.5" stroke-linecap="round" stroke-linejoin="round" d="M10.583,27.291
		c4.958-2.704,13.97-2.704,18.927,0 M10.583,30.445c4.958-2.704,13.97-2.704,18.927,0 M10.583,33.6
		c4.958-2.704,13.97-2.704,18.927,0"/>
</g>
</svg>
