<?xml version="1.0" encoding="utf-8"?>
<!-- Generator: Adobe Illustrator 16.0.0, SVG Export Plug-In . SVG Version: 6.00 Build 0)  -->
<!DOCTYPE svg PUBLIC "-//W3C//DTD SVG 1.1//EN" "http://www.w3.org/Graphics/SVG/1.1/DTD/svg11.dtd">
<svg version="1.1" id="Ebene_1" xmlns="http://www.w3.org/2000/svg" xmlns:xlink="http://www.w3.org/1999/xlink" x="0px" y="0px"
	 width="40px" height="40px" viewBox="0 0 40 40" enable-background="new 0 0 40 40" xml:space="preserve">
<g>
	<path fill="#FFFFFF" stroke="#FFFFFF" stroke-width="3" stroke-linecap="round" d="M20.028,9.921V4.846"/>
	<path fill="#FFFFFF" stroke="#FFFFFF" stroke-width="3" stroke-linecap="round" d="M17.775,6.649h4.505"/>
	<path fill="#FFFFFF" stroke="#FFFFFF" stroke-width="3" d="M20.028,21.972c0,0,4.055-6.76,2.703-9.464c0,0-0.901-2.252-2.703-2.252
		c-1.803,0-2.705,2.252-2.705,2.252C15.972,15.212,20.028,21.972,20.028,21.972"/>
	<path fill="#FFFFFF" stroke="#FFFFFF" stroke-width="3" stroke-linecap="round" stroke-linejoin="round" d="M10.114,32.789
		c4.957,3.153,13.969,3.153,18.928,0v-6.311c0,0,8.111-4.056,5.406-9.464c-3.604-5.859-12.168-3.154-14.42,3.605v3.153V20.62
		c-3.155-6.76-11.717-9.464-14.421-3.605c-2.704,5.408,4.507,9.014,4.507,9.014V32.789z"/>
	<path fill="#FFFFFF" stroke="#FFFFFF" stroke-width="3" stroke-linecap="round" stroke-linejoin="round" d="M10.114,26.479
		c4.957-2.705,13.969-2.705,18.928,0"/>
	<path fill="#FFFFFF" stroke="#FFFFFF" stroke-width="3" stroke-linecap="round" stroke-linejoin="round" d="M10.114,29.633
		c4.957-2.703,13.969-2.703,18.928,0"/>
	<path fill="#FFFFFF" stroke="#FFFFFF" stroke-width="3" stroke-linecap="round" stroke-linejoin="round" d="M10.114,32.789
		c4.957-2.705,13.969-2.705,18.928,0"/>
</g>
<g>
	<path fill="none" stroke="#000000" stroke-width="1.5" stroke-linecap="round" d="M20.028,9.921V4.847"/>
	<path fill="none" stroke="#000000" stroke-width="1.5" stroke-linecap="round" d="M17.774,6.649h4.506"/>
	<path fill="#FFFFFF" stroke="#000000" stroke-width="1.5" d="M20.028,21.972c0,0,4.055-6.76,2.704-9.464
		c0,0-0.901-2.253-2.704-2.253c-1.803,0-2.704,2.253-2.704,2.253C15.972,15.212,20.028,21.972,20.028,21.972"/>
	<path fill="#FFFFFF" stroke="#000000" stroke-width="1.5" stroke-linecap="round" stroke-linejoin="round" d="M10.113,32.787
		c4.957,3.155,13.97,3.155,18.928,0v-6.309c0,0,8.111-4.056,5.407-9.464c-3.605-5.858-12.168-3.154-14.42,3.605v3.153V20.62
		c-3.155-6.76-11.717-9.464-14.421-3.605c-2.704,5.408,4.506,9.013,4.506,9.013V32.787z"/>
	<path fill="none" stroke="#000000" stroke-width="1.5" stroke-linecap="round" stroke-linejoin="round" d="M10.113,26.479
		c4.957-2.705,13.97-2.705,18.928,0"/>
	<path fill="none" stroke="#000000" stroke-width="1.5" stroke-linecap="round" stroke-linejoin="round" d="M10.113,29.633
		c4.957-2.704,13.97-2.704,18.928,0"/>
	<path fill="none" stroke="#000000" stroke-width="1.5" stroke-linecap="round" stroke-linejoin="round" d="M10.113,32.787
		c4.957-2.703,13.97-2.703,18.928,0"/>
</g>
</svg>
