<?xml version="1.0" encoding="utf-8"?>
<!-- Generator: Adobe Illustrator 16.0.0, SVG Export Plug-In . SVG Version: 6.00 Build 0)  -->
<!DOCTYPE svg PUBLIC "-//W3C//DTD SVG 1.1//EN" "http://www.w3.org/Graphics/SVG/1.1/DTD/svg11.dtd">
<svg version="1.1" id="Ebene_1" xmlns="http://www.w3.org/2000/svg" xmlns:xlink="http://www.w3.org/1999/xlink" x="0px" y="0px"
	 width="40px" height="40px" viewBox="0 0 40 40" enable-background="new 0 0 40 40" xml:space="preserve">
<g>
	<g>
		<path fill="#FFFFFF" stroke="#FFFFFF" stroke-width="3" stroke-linejoin="round" d="M8.227,32.741
			c3.082-0.882,9.191,0.391,12.273-1.817c3.082,2.208,9.19,0.936,12.272,1.817c0,0,1.501,0.491,2.728,1.818
			c-0.618,0.883-1.5,0.9-2.728,0.455c-3.082-0.883-9.19,0.418-12.272-0.909c-3.082,1.327-9.191,0.026-12.273,0.909
			C6.997,35.46,6.115,35.442,5.5,34.56C6.731,32.797,8.227,32.741,8.227,32.741z"/>
		<path fill="#FFFFFF" stroke="#FFFFFF" stroke-width="3" stroke-linejoin="round" d="M13.682,29.105
			c2.273,2.272,11.364,2.272,13.637,0c0.454-1.364,0-1.818,0-1.818c0-2.272-2.272-3.637-2.272-3.637
			c5-1.363,5.454-10.454-4.546-14.091c-10,3.637-9.545,12.728-4.545,14.091c0,0-2.273,1.364-2.273,3.637
			C13.682,27.287,13.227,27.741,13.682,29.105z"/>
		<path fill="#FFFFFF" stroke="#FFFFFF" stroke-width="3" stroke-linejoin="round" d="M22.772,7.287
			c0,1.255-1.018,2.272-2.272,2.272c-1.255,0-2.273-1.017-2.273-2.272s1.018-2.273,2.273-2.273
			C21.755,5.014,22.772,6.032,22.772,7.287z"/>
	</g>
	<path fill="none" stroke="#FFFFFF" stroke-width="3" stroke-linecap="round" d="M15.955,23.65h9.091 M13.682,27.287h13.637
		 M20.5,14.105v4.545 M18.227,16.378h4.545"/>
</g>
<g>
	<g>
		<path fill="#FFFFFF" stroke="#000000" stroke-width="1.5" stroke-linejoin="round" d="M8.227,32.741
			c3.082-0.882,9.191,0.391,12.273-1.817c3.082,2.208,9.19,0.936,12.272,1.817c0,0,1.501,0.491,2.728,1.818
			c-0.618,0.883-1.5,0.9-2.728,0.455c-3.082-0.883-9.19,0.418-12.272-0.909c-3.082,1.327-9.191,0.026-12.273,0.909
			C6.997,35.46,6.115,35.442,5.5,34.56C6.731,32.797,8.227,32.741,8.227,32.741z"/>
		<path fill="#FFFFFF" stroke="#000000" stroke-width="1.5" stroke-linejoin="round" d="M13.682,29.105
			c2.273,2.272,11.364,2.272,13.637,0c0.454-1.364,0-1.818,0-1.818c0-2.272-2.272-3.637-2.272-3.637
			c5-1.363,5.454-10.454-4.546-14.091c-10,3.637-9.545,12.728-4.545,14.091c0,0-2.273,1.364-2.273,3.637
			C13.682,27.287,13.227,27.741,13.682,29.105z"/>
		<path fill="#FFFFFF" stroke="#000000" stroke-width="1.5" stroke-linejoin="round" d="M22.772,7.287
			c0,1.255-1.018,2.272-2.272,2.272c-1.255,0-2.273-1.017-2.273-2.272s1.018-2.273,2.273-2.273
			C21.755,5.014,22.772,6.032,22.772,7.287z"/>
	</g>
	<path fill="none" stroke="#000000" stroke-width="1.5" stroke-linecap="round" d="M15.955,23.65h9.091 M13.682,27.287h13.637
		 M20.5,14.105v4.545 M18.227,16.378h4.545"/>
</g>
</svg>
