<?xml version="1.0" encoding="utf-8"?>
<!-- Generator: Adobe Illustrator 16.0.0, SVG Export Plug-In . SVG Version: 6.00 Build 0)  -->
<!DOCTYPE svg PUBLIC "-//W3C//DTD SVG 1.1//EN" "http://www.w3.org/Graphics/SVG/1.1/DTD/svg11.dtd">
<svg version="1.1" id="Ebene_1" xmlns="http://www.w3.org/2000/svg" xmlns:xlink="http://www.w3.org/1999/xlink" x="0px" y="0px"
	 width="40px" height="40px" viewBox="0 0 40 40" enable-background="new 0 0 40 40" xml:space="preserve">
<g>
	<path fill="#FFFFFF" stroke="#FFFFFF" stroke-width="3" stroke-linecap="round" stroke-linejoin="round" d="M19.986,7.824
		c9.835,0.937,15.455,7.493,14.986,27.163H13.43c0-8.43,9.366-6.088,7.493-19.669"/>
	<path fill="#FFFFFF" stroke="#FFFFFF" stroke-width="3" stroke-linecap="round" stroke-linejoin="round" d="M21.859,15.317
		c0.356,2.726-5.198,6.903-7.493,8.43c-2.81,1.873-2.641,4.064-4.683,3.746c-0.976-0.88,1.321-2.848,0-2.81
		c-0.937,0,0.178,1.152-0.937,1.873c-0.937,0-3.75,0.937-3.747-3.747c0-1.873,5.62-11.239,5.62-11.239s1.771-1.78,1.874-3.278
		c-0.684-0.931-0.468-1.874-0.468-2.81c0.937-0.937,2.81,2.342,2.81,2.342h1.874c0,0,0.73-1.866,2.342-2.81
		c0.937,0,0.937,2.81,0.937,2.81"/>
	<path stroke="#FFFFFF" stroke-width="3" stroke-linecap="round" stroke-linejoin="round" d="M8.278,22.342
		c0,0.259-0.209,0.468-0.469,0.468c-0.259,0-0.468-0.209-0.468-0.468s0.209-0.469,0.468-0.469
		C8.069,21.873,8.278,22.083,8.278,22.342z"/>
	<path stroke="#FFFFFF" stroke-width="3" stroke-linecap="round" stroke-linejoin="round" d="M13.367,13.209
		c-0.388,0.672-0.884,1.112-1.108,0.982s-0.091-0.779,0.297-1.451c0.388-0.671,0.884-1.112,1.108-0.982
		C13.888,11.888,13.755,12.538,13.367,13.209z"/>
</g>
<g>
	<path fill="#FFFFFF" stroke="#000000" stroke-width="1.5" stroke-linecap="round" stroke-linejoin="round" d="M19.986,7.824
		c9.835,0.937,15.455,7.493,14.986,27.163H13.43c0-8.43,9.366-6.088,7.493-19.669"/>
	<path fill="#FFFFFF" stroke="#000000" stroke-width="1.5" stroke-linecap="round" stroke-linejoin="round" d="M21.859,15.317
		c0.356,2.726-5.198,6.903-7.493,8.43c-2.81,1.873-2.641,4.064-4.683,3.746c-0.976-0.88,1.321-2.848,0-2.81
		c-0.937,0,0.178,1.152-0.937,1.873c-0.937,0-3.75,0.937-3.747-3.747c0-1.873,5.62-11.239,5.62-11.239s1.771-1.78,1.874-3.278
		c-0.684-0.931-0.468-1.874-0.468-2.81c0.937-0.937,2.81,2.342,2.81,2.342h1.874c0,0,0.73-1.866,2.342-2.81
		c0.937,0,0.937,2.81,0.937,2.81"/>
	<path stroke="#000000" stroke-width="1.5" stroke-linecap="round" stroke-linejoin="round" d="M8.278,22.342
		c0,0.259-0.209,0.468-0.469,0.468c-0.259,0-0.468-0.209-0.468-0.468s0.209-0.469,0.468-0.469
		C8.069,21.873,8.278,22.083,8.278,22.342z"/>
	<path stroke="#000000" stroke-width="1.5" stroke-linecap="round" stroke-linejoin="round" d="M13.367,13.209
		c-0.388,0.672-0.884,1.112-1.108,0.982s-0.091-0.779,0.297-1.451c0.388-0.671,0.884-1.112,1.108-0.982
		C13.888,11.888,13.755,12.538,13.367,13.209z"/>
</g>
</svg>
