<?xml version="1.0" encoding="utf-8"?>
<!-- Generator: Adobe Illustrator 16.0.0, SVG Export Plug-In . SVG Version: 6.00 Build 0)  -->
<!DOCTYPE svg PUBLIC "-//W3C//DTD SVG 1.1//EN" "http://www.w3.org/Graphics/SVG/1.1/DTD/svg11.dtd">
<svg version="1.1" id="Ebene_1" xmlns="http://www.w3.org/2000/svg" xmlns:xlink="http://www.w3.org/1999/xlink" x="0px" y="0px"
	 width="40px" height="40px" viewBox="0 0 40 40" enable-background="new 0 0 40 40" xml:space="preserve">
<g>
	<path fill="#FFFFFF" stroke="#FFFFFF" stroke-width="3.5" stroke-linejoin="round" d="M7.5,33.889h25v-2.777h-25V33.889z"/>
	<path fill="#FFFFFF" stroke="#FFFFFF" stroke-width="3.5" stroke-linejoin="round" d="M10.741,27.407l1.389-2.314H27.87
		l1.389,2.314H10.741z"/>
	<path fill="#FFFFFF" stroke="#FFFFFF" stroke-width="3.5" stroke-linejoin="round" d="M10.278,31.111v-3.704h19.445v3.704H10.278z"
		/>
	<path fill="#FFFFFF" stroke="#FFFFFF" stroke-width="3.5" d="M12.129,25.093V13.056H27.87v12.037H12.129z"/>
	<path fill="#FFFFFF" stroke="#FFFFFF" stroke-width="3.5" stroke-linejoin="round" d="M12.129,13.056l-2.777-2.315h21.296
		l-2.778,2.315H12.129z"/>
	<path fill="#FFFFFF" stroke="#FFFFFF" stroke-width="3.5" stroke-linejoin="round" d="M9.352,10.741V6.111h3.704v1.852h4.629V6.111
		h4.629v1.852h4.63V6.111h3.704v4.629H9.352z"/>
</g>
<g>
	<path stroke="#000000" stroke-width="1.5" stroke-linejoin="round" d="M7.5,33.889h25v-2.777h-25V33.889z"/>
	<path stroke="#000000" stroke-width="1.5" stroke-linejoin="round" d="M10.741,27.407l1.389-2.314H27.87l1.389,2.314H10.741z"/>
	<path stroke="#000000" stroke-width="1.5" stroke-linejoin="round" d="M10.278,31.111v-3.704h19.445v3.704H10.278z"/>
	<path stroke="#000000" stroke-width="1.5" d="M12.129,25.093V13.056H27.87v12.037H12.129z"/>
	<path stroke="#000000" stroke-width="1.5" stroke-linejoin="round" d="M12.129,13.056l-2.777-2.315h21.296l-2.778,2.315H12.129z"/>
	<path stroke="#000000" stroke-width="1.5" stroke-linejoin="round" d="M9.352,10.741V6.111h3.704v1.852h4.629V6.111h4.629v1.852
		h4.63V6.111h3.704v4.629H9.352z"/>
	<path fill="none" stroke="#FFFFFF" stroke-linecap="round" d="M10.278,30.648h19.445l0,0"/>
	<path fill="none" stroke="#FFFFFF" stroke-linecap="round" d="M11.204,26.944h17.592"/>
	<path fill="none" stroke="#FFFFFF" stroke-linecap="round" d="M12.129,25.093H27.87"/>
	<path fill="none" stroke="#FFFFFF" stroke-linecap="round" d="M12.129,13.056H27.87"/>
	<path fill="none" stroke="#FFFFFF" stroke-linecap="round" d="M9.352,10.741h21.296"/>
</g>
</svg>
